<?xml version="1.0" encoding="UTF-8"?>
<svg width="1200pt" height="1200pt" version="1.1" viewBox="0 0 1200 1200" xmlns="http://www.w3.org/2000/svg">
 <path transform="matrix(20.339 0 0 20.339 172.88 20.339)" d="m5.8647 56.692v-31.278l-5.8647-4.8871v-20.526" fill="none" stroke="#000" stroke-linecap="round" stroke-linejoin="round" stroke-width="2"/>
 <path transform="matrix(-20.339 0 0 20.339 727.69 20.339)" d="m16.572 56.692v-31.278l-5.8647-4.8871v-20.526" fill="none" stroke="#000" stroke-linecap="round" stroke-linejoin="round" stroke-width="2"/>
 <path transform="matrix(20.339 0 0 20.339 172.88 20.339)" d="m5.3535 0.48864v17.621" fill="none" stroke="#000" stroke-linecap="round" stroke-linejoin="round" stroke-width="2"/>
 <path transform="matrix(20.339 0 0 20.339 172.88 20.339)" d="m11.218 0.48864v17.621" fill="none" stroke="#000" stroke-linecap="round" stroke-linejoin="round" stroke-width="2"/>
 <path transform="matrix(20.339 0 0 -20.339 172.88 1179.9)" d="m28.143 54.228v-30.963c-10.857-15.882-9.9048-23.632 2.8572-23.251 12.762 0.38085 13.667 8.1313 2.7142 23.251v30.963c0 1.5384-1.247 2.7856-2.7856 2.7856s-2.7858-1.2472-2.7858-2.7856z" fill="none" stroke="#000" stroke-width="2"/>
 <path transform="matrix(20.339 0 0 20.339 172.88 20.339)" d="m29 38c-1.9999 2.6667-3.6666 6.0001-5 10" fill="none" stroke="#000" stroke-linecap="round" stroke-linejoin="round"/>
</svg>
